<?xml version="1.0" encoding="UTF-8"?>
<svg width="128" height="128" version="1.1" viewBox="0 0 128 128" xmlns="http://www.w3.org/2000/svg">
  <defs>
    <linearGradient id="grad1" x1="0%" y1="0%" x2="100%" y2="100%">
      <stop offset="0%" style="stop-color:#ff69b4;stop-opacity:1" />
      <stop offset="100%" style="stop-color:#ff1493;stop-opacity:1" />
    </linearGradient>
  </defs>
  
  <!-- Background circle -->
  <circle cx="64" cy="64" r="60" fill="url(#grad1)" opacity="0.9"/>
  
  <!-- Image icon (left) -->
  <rect x="20" y="35" width="35" height="35" rx="4" fill="white" opacity="0.9"/>
  <rect x="23" y="38" width="29" height="22" rx="2" fill="none" stroke="url(#grad1)" stroke-width="2"/>
  <circle cx="29" cy="44" r="3" fill="url(#grad1)"/>
  <path d="M 24,56 L 32,48 L 38,54 L 48,44" fill="none" stroke="url(#grad1)" stroke-width="2" stroke-linecap="round"/>
  
  <!-- Arrow (center) -->
  <path d="M 56,52 L 72,52" stroke="white" stroke-width="3" stroke-linecap="round" fill="none"/>
  <path d="M 68,48 L 72,52 L 68,56" stroke="white" stroke-width="3" stroke-linecap="round" stroke-linejoin="round" fill="none"/>
  
  <!-- Image icon (right) - with sparkle -->
  <rect x="73" y="35" width="35" height="35" rx="4" fill="white" opacity="0.95"/>
  <rect x="76" y="38" width="29" height="22" rx="2" fill="none" stroke="url(#grad1)" stroke-width="2"/>
  <circle cx="82" cy="44" r="3" fill="url(#grad1)"/>
  <path d="M 77,56 L 85,48 L 91,54 L 101,44" fill="none" stroke="url(#grad1)" stroke-width="2" stroke-linecap="round"/>
  
  <!-- Sparkle effect on converted image -->
  <path d="M 102,40 L 104,42 L 106,40 L 104,38 Z" fill="white"/>
  <path d="M 100,36 L 101,37 L 102,36 L 101,35 Z" fill="white" opacity="0.8"/>
  
  <!-- Bottom text area indicator -->
  <rect x="20" y="80" width="88" height="16" rx="3" fill="white" opacity="0.6"/>
  <rect x="24" y="84" width="30" height="4" rx="2" fill="url(#grad1)" opacity="0.5"/>
  <rect x="58" y="84" width="20" height="4" rx="2" fill="url(#grad1)" opacity="0.5"/>
</svg>
